<svg xmlns="http://www.w3.org/2000/svg" version="1.1" xmlns:xlink="http://www.w3.org/1999/xlink" xmlns:svgjs="http://svgjs.dev/svgjs" width="2000" height="2250" viewBox="0 0 2000 2250"><g transform="matrix(1,0,0,1,0.000015624999718966137,0)"><svg viewBox="0 0 320 360" data-background-color="#ffffff" preserveAspectRatio="xMidYMid meet" height="2250" width="2000" xmlns="http://www.w3.org/2000/svg" xmlns:xlink="http://www.w3.org/1999/xlink"><g id="tight-bounds" transform="matrix(1,0,0,1,0.0000025000000505315256,0)"><svg viewBox="0 0 320 360" height="360" width="320"><g><svg></svg></g><g><svg viewBox="0 0 320 360" height="360" width="320"><g><path transform="translate(-19.44751,3.1739) scale(3.53591,3.53591)" d="M67.6 10.7c0.2 0 1.8 0.8 2.7 1.1-0.3 0.1-1-0.2-1.8-0.5 0.2 0 0.6 0.1 1 0.3-0.2-0.2-1.7-0.7-1.9-0.9M52.7 7.6c0.3-0.1 3.8 0.4 5.4 0.5 0.1-0.1-0.2-0.1-0.6-0.2 0.5-0.1 1.5 0.2 2.2 0.3-2.1 0.1-4.4-0.5-6.4-0.3-0.7 0-0.2-0.2-0.6-0.3M49.8 7.6c1.8 0 3.2 0 0.6 0.2-0.3-0.1-0.7-0.1-0.6-0.2M78.1 15.9c0.2 0 1 0.9 1.4 1.2-0.1 0.1-0.9-0.7-1.3-1 0.1 0.1 0 0-0.1-0.2M76.1 14.6c-0.8-0.7-1.1-0.7-1.2-1.1 0.7 0.4 1.2 0.8 1.2 1.1M63.2 8.3c0.1-0.1 0.3 0.1 0.8 0.2-0.6-0.1-0.5 0-0.3 0.2-0.7-0.1-0.9-0.2-0.7-0.4 0.4 0.2 0.5 0.1 0.2 0M34.8 9.5c0-0.1 0.4-0.3 0.7-0.4-0.3 0.2-0.2 0.3 0.3 0.1 0 0.1-0.6 0.3-1 0.5 0.2-0.1 0.4-0.4 0-0.2M65.2 7.3c-0.3 0.1-1.4-0.5-2.5-0.7-0.6-0.2 2.4 0.5 2.5 0.7M6.2 56.7c0.6 2.5 0.2 2.4 0 0M6.3 41.7c0.1-0.4 0.2-1.5 0.3-1.4-0.3 2.4-0.8 3.5-0.9 5.3 0.3-1.6-0.1 0.9-0.2 1.5 0.1 0.8 0.1-0.5 0.3-0.3 0.2 0.3-0.4 4.5-0.2 2.2-0.2 2.1 0 4.4 0.4 5-0.5 3.2 2 10.4 2.5 11.9 0.1 0.1 0-0.5 0.2-0.1 0.2 1.3 1.1 2.2 1.4 3.6 0.3 0.4 1.5 2.6 1.7 3.1 0.4 0.8 0.6 0.7 1 1.5 1.2 2.3 3.1 4.5 4.9 6.6 5.8 6.8 14.7 12.4 24.6 14.4 9.9 2.1 20.3 0.6 28.4-3.3 0.5-0.3 0.4-0.4 1-0.6 2.8-0.9 6.2-3.8 8.1-4.9 0.9-1 3.3-2.7 3.6-3.7 1.7-1.4 3.4-3.7 4.3-5.2 0.5-0.8 0.9-0.8 1.1-1.3-0.1 0 1.6-2.1 2.1-3.3-0.2 0-0.5 0.6-0.5 0 3.6-6.9 5.6-16.2 4.5-22.6 0.2 7.9-1.8 16.7-5.6 22.3-1.7 3.6-5.2 7.5-8.4 10.3-0.5 0.5-1 1.1-1.6 1.5-1.9 1.6-4 2.9-6.2 4.1-5.2 2.9-11 5.4-17.8 5.5 11.7-1 22.2-6.9 28-14.1-4.4 4.3-6.3 6-11.2 8.5-0.4 0.7-3.7 2.1-5.9 2.7 1.3-0.6 4-1.6 4.9-2.4-7.3 3.5-15.4 5.5-23 4.4 2.9 0 7 0.1 10.9-0.6 0.6-0.2 0.9-0.4 1.6-0.5 7.6-1.7 14.9-5.4 20.1-10.6-3 2.7-7.5 5.9-10.4 6.9 2.7-1.5 7.6-4.4 9.2-6.6-3.2 3.2-9.2 6.4-13 7.8-0.6 0.1 0.4-0.4-0.6 0-1.2 0.3-0.7 0.3-1 0.5-4.6 1.3-9.9 2.4-14.3 2-0.8-0.1-1.1-0.3-1.8-0.3-0.8-0.1-1.5-0.1-2.4-0.1-3.5-0.4-7.3-1.8-10.1-3-1.5-0.7-3-1.2-4.5-2.1-1.2-0.7-2.2-1.5-3.2-2.3-3.8-2.8-7-5.6-10-9.6-5.4-7.5-8.2-16.9-7.8-26.2 0.4-9.3 4.1-18.4 10-25.1-0.3 0.3 0.4-0.7 1-1.3 0 0.2-0.1 0.5 0.6-0.2 0.6-0.7-0.2-0.2 0.1-0.6 6.2-6.8 17-12.3 28.1-12.5 0.4-0.3 1.1-0.7 1.9-0.5 0 0.1-0.5 0.1-0.5 0.1 1.1-0.1 2.1-0.1 2.6 0.1 0.1-0.1-0.4-0.2 0-0.2 0.7 0.2 0.9 0 1.3 0.2-0.3 0-0.6 0-0.8 0.1 2.5 0 4.1 0.6 6.6 0.8-1.3-0.3-1.6-0.3-2.6-0.6 1.1 0.2 1.6 0.4 2.1 0.3-0.2 0-0.1-0.3 0.1-0.2 2 0.5 2.2 0.7 4.3 1.4 0.2-0.2-0.9-0.3-1.2-0.6 2 0.7 3.8 1.2 5 2-0.4-0.3-1.6-0.7-2.5-1.1-0.1 0.1 0.3 0.2 0.4 0.4-1-0.5-2.4-1-3.8-1.2 1.2 0.3 2 0.7 2.5 0.9-1.1-0.2-2.5-0.9-4.1-1.2 2.6 0.8 7.5 2.6 10.5 4.2-1.1-0.7-2.4-1.2-3.1-1.6 0.6 0.1 1.3 0.5 1.3 0.3 0.7 0.3 1.6 1 2.1 1.1-0.9-0.6-2.7-1.5-3.3-1.8 7.5 3.4 14.2 9.1 18.5 16.4 0.4 0.7 1 2.3 1.5 2.5-0.1-0.5-0.5-0.8-0.9-1.6 0.2 0 0.2-0.3 0-0.6-0.4-0.5 0 0.4-0.4-0.1-1.8-3.3-4-6.2-7.4-9.4 1.9 1.8 0.5 0.5 0.1-0.1 2.6 2.3 5.6 6.2 6.9 8.2-0.2-0.3-0.3-0.5-0.2-0.5 2.4 4.1 3.9 7.8 5.4 13.1 0.1 0.1 0-0.4 0.2-0.1 1 4.2 1.3 7.7 1.2 10.9 0.8-5.4-1-13.8-4.2-20.4-0.4-0.8-0.4-0.2-0.8-1.1 0-0.3-0.3-0.9-0.5-1.3-4-6.6-8.9-11.3-14.7-15 0.4 0.2 1.2 0.8 1.2 0.7-10.8-7.1-23.3-8.1-33.6-5.9-0.7 0.3-1 0.6-1.8 1 1.5-0.5 2.4-0.6 3.8-0.9 0.3-0.3-1.3 0.1-0.6-0.2 0.1 0.1 1.4-0.2 1.7-0.1 0 0.1-0.4 0.2-0.5 0.3 3.3-0.7 6.7-0.8 9.6-0.6-1.7 0.1-4.8-0.2-5.8 0.3 1-0.1 2.4-0.2 3.3-0.1-1.2 0-3.4 0.1-4.4 0.2-0.1-0.1 1.6-0.3 0.5-0.3-0.5 0.1-1.3 0.1-1.6 0.4-8.6 0.8-17 5.3-22.9 10.6-1.2 1-2.6 2.1-3.5 3.2-2.2 2.5-3.6 5-5.2 7.2 1-2.1 3.2-5.3 5.8-8 2.6-2.7 5.4-5 6.9-6.2 0 0.4 2.4-1.5 3.3-2.1-0.6 0.5 0.4-0.2 0.6-0.1 3.2-1.9 5.8-2.6 8.7-3.7-0.7 0.2-1.3 0.4-1.4 0.3 0.7-0.2 1.1-0.4 1-0.5-2.8 0.8-7.2 2.7-10.7 4.8 6.3-4.3 14.3-6.9 22.2-7 7.9-0.2 15.6 1.8 21.7 5 4.1 1.8 8 5.1 11.1 8.3 0.9 0.8 0.2-0.2 1.5 1.2-0.4-0.2-0.7-0.4-0.2 0.2 0.8 0.9-0.2-0.7 1.1 0.9-0.1 0-0.5-0.5-0.5-0.3 3.5 3.1 6.2 8.7 7.8 12.4-0.4-1.5-1.4-3.6-2.2-5.1 2.4 4.4 3.2 7 4.2 10.9 0.4 0.3-0.2-1.4 0.2-0.6 0.1 0.6 0.2 2.5 0.6 2.8-0.3-1.9-0.8-4.2-1.2-4.6 0.3 0.2-0.5-2.3-1-2.9-0.2-1.6-1.6-4.4-2.8-6.5-4.3-8.4-12-15.3-20.6-19.1 0-0.2-0.5-0.4-0.7-0.6-8.5-3.6-18.7-4.6-28.5-2.3-9.9 2.4-19.2 8.1-25.8 16.3 0.3-1 2.8-2.9 2.9-3.7-2.9 3.1-6 7.2-8.1 11.6-2.2 4.4-3.4 8.9-3.9 12.2" fill="#ffffff" fill-rule="nonzero" stroke="none" stroke-width="1" stroke-linecap="butt" stroke-linejoin="miter" stroke-miterlimit="10" stroke-dasharray="" stroke-dashoffset="0" font-family="none" font-weight="none" font-size="none" text-anchor="none" style="mix-blend-mode: normal" data-fill-palette-color="tertiary"></path></g><g transform="matrix(1,0,0,1,48,160.84827405994542)"><svg viewBox="0 0 224 38.30345188010916" height="38.30345188010916" width="224"><g><svg viewBox="0 0 368.91104589286596 63.08288613570594" height="38.30345188010916" width="224"><g transform="matrix(1,0,0,1,144.91104589286596,17.819069991246373)"><svg viewBox="0 0 224 27.4447461532132" height="27.4447461532132" width="224"><g id="textblocktransform"><svg viewBox="0 0 224 27.4447461532132" height="27.4447461532132" width="224" id="textblock"><g><svg viewBox="0 0 224 27.4447461532132" height="27.4447461532132" width="224"><g transform="matrix(1,0,0,1,0,0)"><svg width="224" viewBox="2.25 -36.83 303.8 37.23" height="27.4447461532132" data-palette-color="#61777f"><path d="M29.6-7.4L29.6-7.4Q30-7.4 30.33-7.08L30.33-7.08 32.23-5Q30.03-2.45 26.89-1.03 23.75 0.4 19.33 0.4L19.33 0.4Q15.45 0.4 12.3-0.94 9.15-2.27 6.93-4.69 4.7-7.1 3.48-10.48 2.25-13.85 2.25-17.9L2.25-17.9Q2.25-21.95 3.56-25.33 4.88-28.7 7.25-31.13 9.63-33.55 12.94-34.89 16.25-36.23 20.25-36.23L20.25-36.23Q24.2-36.23 27.06-35 29.93-33.77 32.15-31.68L32.15-31.68 30.58-29.45Q30.4-29.2 30.18-29.04 29.95-28.88 29.53-28.88L29.53-28.88Q29.2-28.88 28.84-29.11 28.48-29.35 27.98-29.7 27.48-30.05 26.8-30.45 26.13-30.85 25.2-31.2 24.28-31.55 23.05-31.79 21.83-32.02 20.23-32.02L20.23-32.02Q17.35-32.02 14.96-31.04 12.58-30.05 10.85-28.23 9.13-26.4 8.16-23.78 7.2-21.15 7.2-17.9L7.2-17.9Q7.2-14.55 8.16-11.93 9.13-9.3 10.79-7.49 12.45-5.68 14.73-4.73 17-3.78 19.63-3.78L19.63-3.78Q21.23-3.78 22.5-3.96 23.78-4.15 24.86-4.55 25.95-4.95 26.89-5.56 27.83-6.18 28.78-7.03L28.78-7.03Q29.2-7.4 29.6-7.4ZM42.35 0L37.9 0 37.9-36.83 42.35-36.83 42.35-21.93Q43.97-23.65 45.95-24.69 47.92-25.73 50.5-25.73L50.5-25.73Q52.57-25.73 54.16-25.04 55.75-24.35 56.81-23.09 57.87-21.83 58.42-20.05 58.97-18.28 58.97-16.13L58.97-16.13 58.97 0 54.52 0 54.52-16.13Q54.52-19 53.21-20.59 51.9-22.18 49.2-22.18L49.2-22.18Q47.22-22.18 45.51-21.23 43.8-20.28 42.35-18.65L42.35-18.65 42.35 0ZM84.3-16.2L84.3 0 82.32 0Q81.67 0 81.27-0.2 80.87-0.4 80.75-1.05L80.75-1.05 80.25-3.4Q79.25-2.5 78.3-1.79 77.34-1.07 76.3-0.59 75.25-0.1 74.06 0.15 72.87 0.4 71.42 0.4L71.42 0.4Q69.95 0.4 68.66-0.01 67.37-0.43 66.42-1.25 65.47-2.08 64.91-3.34 64.34-4.6 64.34-6.33L64.34-6.33Q64.34-7.83 65.17-9.21 66-10.6 67.83-11.68 69.67-12.75 72.65-13.44 75.62-14.13 79.92-14.23L79.92-14.23 79.92-16.2Q79.92-19.15 78.66-20.66 77.4-22.18 74.92-22.18L74.92-22.18Q73.3-22.18 72.18-21.76 71.07-21.35 70.26-20.84 69.45-20.33 68.86-19.91 68.27-19.5 67.7-19.5L67.7-19.5Q67.25-19.5 66.91-19.74 66.57-19.98 66.37-20.33L66.37-20.33 65.57-21.75Q67.67-23.78 70.09-24.78 72.52-25.78 75.47-25.78L75.47-25.78Q77.59-25.78 79.25-25.08 80.9-24.38 82.02-23.13 83.15-21.88 83.72-20.1 84.3-18.32 84.3-16.2L84.3-16.2ZM72.75-2.73L72.75-2.73Q73.92-2.73 74.9-2.96 75.87-3.2 76.73-3.64 77.59-4.08 78.38-4.7 79.17-5.33 79.92-6.13L79.92-6.13 79.92-11.4Q76.84-11.3 74.7-10.91 72.55-10.53 71.2-9.9 69.84-9.28 69.23-8.43 68.62-7.58 68.62-6.53L68.62-6.53Q68.62-5.53 68.95-4.8 69.27-4.08 69.82-3.61 70.37-3.15 71.12-2.94 71.87-2.73 72.75-2.73ZM106.54-22.78L105.54-21.15Q105.24-20.6 104.62-20.6L104.62-20.6Q104.24-20.6 103.77-20.88 103.29-21.15 102.61-21.49 101.92-21.83 100.97-22.11 100.02-22.4 98.72-22.4L98.72-22.4Q97.59-22.4 96.69-22.11 95.79-21.83 95.16-21.33 94.52-20.83 94.18-20.16 93.84-19.5 93.84-18.73L93.84-18.73Q93.84-17.75 94.41-17.1 94.97-16.45 95.89-15.98 96.82-15.5 97.99-15.14 99.17-14.78 100.41-14.36 101.64-13.95 102.82-13.45 103.99-12.95 104.92-12.2 105.84-11.45 106.41-10.36 106.97-9.28 106.97-7.75L106.97-7.75Q106.97-6 106.34-4.51 105.72-3.03 104.49-1.94 103.27-0.85 101.49-0.23 99.72 0.4 97.39 0.4L97.39 0.4Q94.74 0.4 92.59-0.46 90.44-1.33 88.94-2.68L88.94-2.68 89.99-4.38Q90.19-4.7 90.47-4.88 90.74-5.05 91.19-5.05L91.19-5.05Q91.64-5.05 92.14-4.7 92.64-4.35 93.36-3.93 94.07-3.5 95.08-3.15 96.09-2.8 97.62-2.8L97.62-2.8Q98.92-2.8 99.89-3.14 100.87-3.48 101.52-4.05 102.17-4.63 102.48-5.38 102.79-6.13 102.79-6.98L102.79-6.98Q102.79-8.03 102.23-8.71 101.67-9.4 100.74-9.89 99.82-10.38 98.63-10.74 97.44-11.1 96.21-11.5 94.97-11.9 93.78-12.41 92.59-12.93 91.67-13.7 90.74-14.48 90.18-15.61 89.62-16.75 89.62-18.38L89.62-18.38Q89.62-19.83 90.22-21.16 90.82-22.5 91.97-23.51 93.12-24.53 94.79-25.13 96.47-25.73 98.62-25.73L98.62-25.73Q101.12-25.73 103.11-24.94 105.09-24.15 106.54-22.78L106.54-22.78ZM112.89-36.83L117.37-36.83 117.37-15.15 118.52-15.15Q119.02-15.15 119.34-15.29 119.67-15.43 120.07-15.85L120.07-15.85 128.07-24.43Q128.44-24.83 128.82-25.08 129.19-25.33 129.82-25.33L129.82-25.33 133.87-25.33 124.54-15.4Q124.19-14.98 123.85-14.65 123.52-14.33 123.09-14.08L123.09-14.08Q123.54-13.78 123.9-13.39 124.27-13 124.59-12.5L124.59-12.5 134.49 0 130.49 0Q129.94 0 129.55-0.21 129.17-0.43 128.82-0.88L128.82-0.88 120.49-11.25Q120.12-11.78 119.74-11.94 119.37-12.1 118.62-12.1L118.62-12.1 117.37-12.1 117.37 0 112.89 0 112.89-36.83ZM157.54-16.2L157.54 0 155.56 0Q154.91 0 154.51-0.2 154.11-0.4 153.99-1.05L153.99-1.05 153.49-3.4Q152.49-2.5 151.54-1.79 150.59-1.07 149.54-0.59 148.49-0.1 147.3 0.15 146.11 0.4 144.66 0.4L144.66 0.4Q143.19 0.4 141.9-0.01 140.61-0.43 139.66-1.25 138.71-2.08 138.15-3.34 137.59-4.6 137.59-6.33L137.59-6.33Q137.59-7.83 138.41-9.21 139.24-10.6 141.08-11.68 142.91-12.75 145.89-13.44 148.86-14.13 153.16-14.23L153.16-14.23 153.16-16.2Q153.16-19.15 151.9-20.66 150.64-22.18 148.16-22.18L148.16-22.18Q146.54-22.18 145.43-21.76 144.31-21.35 143.5-20.84 142.69-20.33 142.1-19.91 141.51-19.5 140.94-19.5L140.94-19.5Q140.49-19.5 140.15-19.74 139.81-19.98 139.61-20.33L139.61-20.33 138.81-21.75Q140.91-23.78 143.34-24.78 145.76-25.78 148.71-25.78L148.71-25.78Q150.84-25.78 152.49-25.08 154.14-24.38 155.26-23.13 156.39-21.88 156.96-20.1 157.54-18.32 157.54-16.2L157.54-16.2ZM145.99-2.73L145.99-2.73Q147.16-2.73 148.14-2.96 149.11-3.2 149.98-3.64 150.84-4.08 151.63-4.7 152.41-5.33 153.16-6.13L153.16-6.13 153.16-11.4Q150.09-11.3 147.94-10.91 145.79-10.53 144.44-9.9 143.09-9.28 142.48-8.43 141.86-7.58 141.86-6.53L141.86-6.53Q141.86-5.53 142.19-4.8 142.51-4.08 143.06-3.61 143.61-3.15 144.36-2.94 145.11-2.73 145.99-2.73ZM199.88-7.4L199.88-7.4Q200.28-7.4 200.61-7.08L200.61-7.08 202.51-5Q200.31-2.45 197.17-1.03 194.03 0.4 189.61 0.4L189.61 0.4Q185.73 0.4 182.58-0.94 179.43-2.27 177.21-4.69 174.98-7.1 173.76-10.48 172.53-13.85 172.53-17.9L172.53-17.9Q172.53-21.95 173.85-25.33 175.16-28.7 177.53-31.13 179.91-33.55 183.22-34.89 186.53-36.23 190.53-36.23L190.53-36.23Q194.48-36.23 197.35-35 200.21-33.77 202.43-31.68L202.43-31.68 200.86-29.45Q200.68-29.2 200.46-29.04 200.23-28.88 199.81-28.88L199.81-28.88Q199.48-28.88 199.12-29.11 198.76-29.35 198.26-29.7 197.76-30.05 197.08-30.45 196.41-30.85 195.48-31.2 194.56-31.55 193.33-31.79 192.11-32.02 190.51-32.02L190.51-32.02Q187.63-32.02 185.25-31.04 182.86-30.05 181.13-28.23 179.41-26.4 178.45-23.78 177.48-21.15 177.48-17.9L177.48-17.9Q177.48-14.55 178.45-11.93 179.41-9.3 181.07-7.49 182.73-5.68 185.01-4.73 187.28-3.78 189.91-3.78L189.91-3.78Q191.51-3.78 192.78-3.96 194.06-4.15 195.15-4.55 196.23-4.95 197.17-5.56 198.11-6.18 199.06-7.03L199.06-7.03Q199.48-7.4 199.88-7.4ZM218.43-25.73L218.43-25.73Q221.21-25.73 223.44-24.8 225.68-23.88 227.24-22.18 228.81-20.48 229.64-18.06 230.48-15.65 230.48-12.68L230.48-12.68Q230.48-9.68 229.64-7.28 228.81-4.88 227.24-3.18 225.68-1.48 223.44-0.56 221.21 0.35 218.43 0.35L218.43 0.35Q215.66 0.35 213.42-0.56 211.18-1.48 209.61-3.18 208.03-4.88 207.18-7.28 206.33-9.68 206.33-12.68L206.33-12.68Q206.33-15.65 207.18-18.06 208.03-20.48 209.61-22.18 211.18-23.88 213.42-24.8 215.66-25.73 218.43-25.73ZM218.43-3.13L218.43-3.13Q222.18-3.13 224.03-5.64 225.88-8.15 225.88-12.65L225.88-12.65Q225.88-17.18 224.03-19.7 222.18-22.23 218.43-22.23L218.43-22.23Q216.53-22.23 215.13-21.58 213.73-20.93 212.79-19.7 211.86-18.48 211.39-16.69 210.93-14.9 210.93-12.65L210.93-12.65Q210.93-10.4 211.39-8.63 211.86-6.85 212.79-5.64 213.73-4.42 215.13-3.78 216.53-3.13 218.43-3.13ZM256.45 0L253.8 0Q252.85 0 252.6-0.93L252.6-0.93 252.2-4Q250.58-2.02 248.49-0.84 246.4 0.35 243.7 0.35L243.7 0.35Q241.53 0.35 239.75-0.49 237.98-1.33 236.73-2.95 235.48-4.58 234.8-7 234.13-9.43 234.13-12.58L234.13-12.58Q234.13-15.38 234.88-17.79 235.63-20.2 237.04-21.98 238.45-23.75 240.48-24.76 242.5-25.78 245.08-25.78L245.08-25.78Q247.4-25.78 249.05-24.99 250.7-24.2 252-22.78L252-22.78 252-36.83 256.45-36.83 256.45 0ZM245.18-3.25L245.18-3.25Q247.35-3.25 248.99-4.25 250.63-5.25 252-7.08L252-7.08 252-19.33Q250.78-20.98 249.32-21.64 247.85-22.3 246.08-22.3L246.08-22.3Q242.53-22.3 240.63-19.78 238.73-17.25 238.73-12.58L238.73-12.58Q238.73-10.1 239.15-8.34 239.58-6.58 240.4-5.44 241.23-4.3 242.43-3.78 243.63-3.25 245.18-3.25ZM273.95-25.73L273.95-25.73Q276.23-25.73 278.15-24.96 280.08-24.2 281.48-22.76 282.88-21.33 283.66-19.21 284.45-17.1 284.45-14.4L284.45-14.4Q284.45-13.35 284.23-13 284-12.65 283.38-12.65L283.38-12.65 266.53-12.65Q266.58-10.25 267.18-8.47 267.78-6.7 268.83-5.51 269.88-4.33 271.33-3.74 272.78-3.15 274.58-3.15L274.58-3.15Q276.25-3.15 277.46-3.54 278.68-3.93 279.55-4.38 280.43-4.83 281.01-5.21 281.6-5.6 282.03-5.6L282.03-5.6Q282.58-5.6 282.88-5.18L282.88-5.18 284.13-3.55Q283.3-2.55 282.15-1.81 281-1.07 279.69-0.6 278.38-0.13 276.98 0.11 275.58 0.35 274.2 0.35L274.2 0.35Q271.58 0.35 269.36-0.54 267.15-1.43 265.54-3.14 263.93-4.85 263.03-7.38 262.13-9.9 262.13-13.18L262.13-13.18Q262.13-15.83 262.94-18.13 263.75-20.43 265.28-22.11 266.8-23.8 269-24.76 271.2-25.73 273.95-25.73ZM274.05-22.45L274.05-22.45Q270.83-22.45 268.98-20.59 267.13-18.73 266.68-15.43L266.68-15.43 280.45-15.43Q280.45-16.98 280.03-18.26 279.6-19.55 278.78-20.49 277.95-21.43 276.76-21.94 275.58-22.45 274.05-22.45ZM305.62-22.78L304.62-21.15Q304.32-20.6 303.7-20.6L303.7-20.6Q303.32-20.6 302.85-20.88 302.37-21.15 301.69-21.49 301-21.83 300.05-22.11 299.1-22.4 297.8-22.4L297.8-22.4Q296.67-22.4 295.77-22.11 294.87-21.83 294.24-21.33 293.6-20.83 293.26-20.16 292.92-19.5 292.92-18.73L292.92-18.73Q292.92-17.75 293.49-17.1 294.05-16.45 294.97-15.98 295.9-15.5 297.07-15.14 298.25-14.78 299.49-14.36 300.72-13.95 301.9-13.45 303.07-12.95 304-12.2 304.92-11.45 305.49-10.36 306.05-9.28 306.05-7.75L306.05-7.75Q306.05-6 305.42-4.51 304.8-3.03 303.57-1.94 302.35-0.85 300.57-0.23 298.8 0.4 296.47 0.4L296.47 0.4Q293.82 0.4 291.67-0.46 289.52-1.33 288.02-2.68L288.02-2.68 289.07-4.38Q289.27-4.7 289.55-4.88 289.82-5.05 290.27-5.05L290.27-5.05Q290.72-5.05 291.22-4.7 291.72-4.35 292.44-3.93 293.15-3.5 294.16-3.15 295.17-2.8 296.7-2.8L296.7-2.8Q298-2.8 298.97-3.14 299.95-3.48 300.6-4.05 301.25-4.63 301.56-5.38 301.87-6.13 301.87-6.98L301.87-6.98Q301.87-8.03 301.31-8.71 300.75-9.4 299.82-9.89 298.9-10.38 297.71-10.74 296.52-11.1 295.29-11.5 294.05-11.9 292.86-12.41 291.67-12.93 290.75-13.7 289.82-14.48 289.26-15.61 288.7-16.75 288.7-18.38L288.7-18.38Q288.7-19.83 289.3-21.16 289.9-22.5 291.05-23.51 292.2-24.53 293.87-25.13 295.55-25.73 297.7-25.73L297.7-25.73Q300.2-25.73 302.19-24.94 304.17-24.15 305.62-22.78L305.62-22.78Z" opacity="1" transform="matrix(1,0,0,1,0,0)" fill="#ffffff" class="wordmark-text-0" data-fill-palette-color="primary" id="text-0"></path></svg></g></svg></g></svg></g></svg></g><g><svg viewBox="0 0 138.432 63.08288613570594" height="63.08288613570594" width="138.432"><g><svg xmlns="http://www.w3.org/2000/svg" xmlns:xlink="http://www.w3.org/1999/xlink" version="1.1" x="0" y="0" viewBox="5 29.49387475885969 90 41.012625348283166" enable-background="new 0 0 100 100" xml:space="preserve" height="63.08288613570594" width="138.432" class="icon-icon-0" data-fill-palette-color="accent" id="icon-0"><g fill="#61777f" data-fill-palette-color="accent"><path d="M23.943 30.807L5 50.001l18.942 19.192c1.728 1.751 4.53 1.751 6.258 0.002 1.729-1.75 1.73-4.587 0.002-6.338L18.193 50.695l-3.624 2.289 15.634-15.841c0.864-0.875 1.295-2.021 1.295-3.168 0-1.147-0.433-2.295-1.297-3.17C28.473 29.056 25.671 29.057 23.943 30.807z" fill="#ffffff" data-fill-palette-color="accent"></path><path d="M76.057 30.808L95 50.001 76.058 69.193c-1.728 1.751-4.53 1.751-6.258 0.002-1.729-1.75-1.73-4.587-0.002-6.338l12.009-12.161 3.624 2.289L69.796 37.144c-0.864-0.875-1.295-2.021-1.295-3.168 0-1.147 0.433-2.295 1.297-3.17C71.527 29.056 74.329 29.057 76.057 30.808z" fill="#ffffff" data-fill-palette-color="accent"></path><path d="M60.899 32.352c-0.419-1.068-1.241-1.978-2.366-2.476-2.249-0.997-4.857 0.028-5.825 2.288l-13.82 32.062c-0.484 1.13-0.467 2.355-0.048 3.422 0.419 1.068 1.241 1.978 2.366 2.476 2.249 0.997 4.857-0.028 5.825-2.288l13.82-32.062C61.335 34.644 61.318 33.419 60.899 32.352z" fill="#ffffff" data-fill-palette-color="accent"></path></g></svg></g></svg></g></svg></g></svg></g></svg></g><defs></defs></svg><rect width="320" height="360" fill="none" stroke="none" visibility="hidden"></rect></g></svg></g></svg>